<svg width="32" height="32" viewBox="0 0 32 32" fill="none" xmlns="http://www.w3.org/2000/svg">
<path d="M16 21.3335C15.6884 21.3341 15.3865 21.2256 15.1466 21.0269L7.14665 14.3602C6.87436 14.1339 6.70313 13.8087 6.67062 13.4561C6.63811 13.1035 6.747 12.7525 6.97331 12.4802C7.19963 12.2079 7.52485 12.0367 7.87742 12.0042C8.22998 11.9717 8.58103 12.0806 8.85331 12.3069L16 18.2802L23.1466 12.5202C23.283 12.4095 23.44 12.3267 23.6084 12.2768C23.7769 12.2269 23.9535 12.2108 24.1282 12.2294C24.3029 12.248 24.4722 12.3009 24.6264 12.3851C24.7806 12.4694 24.9166 12.5832 25.0266 12.7202C25.1488 12.8573 25.2412 13.0181 25.2983 13.1926C25.3553 13.3671 25.3758 13.5515 25.3582 13.7343C25.3407 13.917 25.2856 14.0942 25.1965 14.2547C25.1073 14.4151 24.9859 14.5555 24.84 14.6669L16.84 21.1069C16.5932 21.2742 16.2974 21.354 16 21.3335Z" fill="white"/>
</svg>
