<svg width="23" height="20" viewBox="0 0 23 20" xmlns="http://www.w3.org/2000/svg">
<path d="M19.1902 7.89914C18.6362 6.59807 17.7713 5.45288 16.6714 4.56411C15.5715 3.67533 14.2702 3.07015 12.8818 2.80167L14.136 0.795L12.864 0L11.2091 2.64788C9.52335 2.6557 7.87685 3.15722 6.473 4.09047C5.06915 5.02372 3.96948 6.34781 3.30985 7.89914C2.42628 7.91594 1.58457 8.27873 0.965649 8.90953C0.346726 9.54033 0 10.3888 0 11.2725C0 12.1562 0.346726 13.0047 0.965649 13.6355C1.58457 14.2663 2.42628 14.6291 3.30985 14.6459C3.97229 16.2036 5.07828 17.532 6.49012 18.4658C7.90196 19.3996 9.55729 19.8975 11.25 19.8975C12.9427 19.8975 14.598 19.3996 16.0099 18.4658C17.4217 17.532 18.5277 16.2036 19.1902 14.6459C20.0737 14.6291 20.9154 14.2663 21.5344 13.6355C22.1533 13.0047 22.5 12.1562 22.5 11.2725C22.5 10.3888 22.1533 9.54033 21.5344 8.90953C20.9154 8.27873 20.0737 7.91594 19.1902 7.89914ZM20.4629 12.5855C20.1199 12.9363 19.6523 13.1378 19.1617 13.1461L18.1902 13.1646L17.8099 14.0587C17.2627 15.3457 16.349 16.4434 15.1826 17.2149C14.0162 17.9865 12.6485 18.3979 11.25 18.3979C9.85151 18.3979 8.48389 17.9865 7.31747 17.2149C6.15104 16.4434 5.23735 15.3457 4.69017 14.0587L4.30983 13.1646L3.33835 13.1461C2.8475 13.137 2.37986 12.9355 2.03598 12.5851C1.6921 12.2348 1.49944 11.7634 1.49944 11.2725C1.49944 10.7816 1.6921 10.3102 2.03598 9.95986C2.37986 9.60949 2.8475 9.40805 3.33835 9.39886L4.30983 9.38039L4.69017 8.4863C5.23737 7.19929 6.15106 6.10167 7.31749 5.33013C8.48391 4.55858 9.85152 4.1472 11.25 4.1472C12.6485 4.1472 14.0161 4.55858 15.1826 5.33013C16.349 6.10167 17.2627 7.19929 17.8099 8.4863L18.1902 9.38039L19.1617 9.39886C19.5278 9.40578 19.8838 9.51982 20.1858 9.72688C20.4878 9.93393 20.7225 10.2249 20.861 10.5639C20.9994 10.9029 21.0355 11.2751 20.9647 11.6343C20.894 11.9936 20.7195 12.3243 20.4629 12.5855Z"/>
<path d="M11.25 16.5225C11.7425 16.5225 12.2301 16.4255 12.6851 16.237C13.14 16.0486 13.5534 15.7723 13.9017 15.4241C14.2499 15.0759 14.5261 14.6625 14.7145 14.2075C14.903 13.7526 15 13.2649 15 12.7725H7.5C7.5 13.2649 7.597 13.7526 7.78545 14.2075C7.97391 14.6625 8.25013 15.0759 8.59835 15.4241C9.30161 16.1274 10.2554 16.5225 11.25 16.5225Z"/>
<path d="M7.125 9.39746H9V11.2725H7.125V9.39746Z"/>
<path d="M13.5 9.39746H15.375V11.2725H13.5V9.39746Z"/>
</svg>
