<svg width="30" height="30" viewBox="0 0 30 30" fill="none" xmlns="http://www.w3.org/2000/svg">
<path d="M14.1 3.49999L13.475 4.12499C11.8 3.18749 9.80001 2.99999 8.01251 3.58749L7.91251 3.49999C6.70001 2.27499 4.71251 2.27499 3.50001 3.49999C2.28751 4.72499 2.27501 6.69999 3.50001 7.91249L3.58751 8.01249C3.00001 9.79999 3.18751 11.8 4.12501 13.475L3.50001 14.1C3.32464 14.2732 3.18541 14.4795 3.09039 14.707C2.99536 14.9344 2.94643 15.1785 2.94643 15.425C2.94643 15.6715 2.99536 15.9155 3.09039 16.143C3.18541 16.3704 3.32464 16.5768 3.50001 16.75L5.26251 18.525C6.00001 19.25 7.17501 19.25 7.91251 18.525L8.35001 18.075L17.2 26.9125C17.925 27.65 19.1125 27.65 19.85 26.9125L26.9125 19.85C27.65 19.1125 27.65 17.925 26.9125 17.1875L18.075 8.34999L18.525 7.91249C19.25 7.17499 19.25 5.99999 18.525 5.26249L16.75 3.48749C16.3968 3.13801 15.9193 2.94304 15.4224 2.94538C14.9255 2.94772 14.4499 3.1472 14.1 3.49999ZM5.31251 8.81249C5.41251 8.38749 5.58751 7.97499 5.82501 7.58749L4.82501 6.58749C4.6908 6.46077 4.59174 6.30142 4.53751 6.12499C4.37501 5.69999 4.46251 5.17499 4.82501 4.82499C5.18751 4.47499 5.70001 4.37499 6.12501 4.53749C6.30001 4.58749 6.45001 4.68749 6.58751 4.82499L7.58751 5.82499C7.97501 5.58749 8.38751 5.41249 8.81251 5.31249C9.88751 4.99999 11.0375 5.07499 12.0625 5.52499L5.52501 12.0625C5.07501 11.0375 5.00001 9.88749 5.31251 8.81249ZM25.5875 18.525L18.525 25.5875L9.68751 16.75L16.75 9.68749L25.5875 18.525ZM17.2 6.58749L6.58751 17.2L4.82501 15.425L15.425 4.82499L17.2 6.58749ZM18.525 14.5375L14.5375 18.525L13.2125 17.2L17.2 13.2125L18.525 14.5375ZM21.175 17.2L17.2 21.175L15.8625 19.85L19.85 15.8625L21.175 17.2Z" fill="#AF2242"/>
</svg>
