<svg width="20" height="21" viewBox="0 0 20 21" fill="none" xmlns="http://www.w3.org/2000/svg">
<path d="M9.75001 0.897461L9.14026 1.78846C9.14026 1.78846 8.73601 2.35321 8.34376 3.03046C8.14726 3.37021 7.96276 3.72496 7.80451 4.08496C7.64701 4.44496 7.50001 4.77646 7.50001 5.20996C7.50001 6.44371 8.51626 7.45996 9.75001 7.45996C10.9838 7.45996 12 6.44371 12 5.20996C12 4.77646 11.8538 4.44496 11.6955 4.08496C11.5373 3.72496 11.3528 3.37021 11.1563 3.03046C10.764 2.35321 10.359 1.78771 10.359 1.78771L9.75001 0.897461ZM9.75001 7.45996H7.50001V10.46H3.00001C1.34251 10.46 9.82878e-06 11.8025 9.82878e-06 13.46C-0.00186643 14.1933 0.26494 14.9019 0.75001 15.452V20.96H18.75V15.452C19.2351 14.9019 19.5019 14.1933 19.5 13.46C19.5 11.8025 18.1575 10.46 16.5 10.46H12V7.45996H9.75001ZM9.75001 3.61621C9.79951 3.69871 9.79426 3.69271 9.84376 3.78046C10.0223 4.08796 10.2128 4.41571 10.3358 4.69396C10.4588 4.97296 10.5 5.23021 10.5 5.20996C10.5 5.62621 10.1663 5.95996 9.75001 5.95996C9.33376 5.95996 9.00001 5.62621 9.00001 5.20996C9.00001 5.23021 9.04126 4.97296 9.16426 4.69396C9.28726 4.41646 9.47776 4.08796 9.65626 3.78046C9.70576 3.69271 9.70051 3.69796 9.75001 3.61621ZM9.00001 8.95996H10.5V10.46H9.00001V8.95996ZM3.00001 11.96H16.5C17.3933 11.96 18 12.5667 18 13.46C18 14.3532 17.3933 14.96 16.5 14.96C15.6068 14.96 15 14.3532 15 13.46H13.5C13.5 14.3532 12.8933 14.96 12 14.96C11.1068 14.96 10.5 14.3532 10.5 13.46H9.00001C9.00001 14.3532 8.39326 14.96 7.50001 14.96C6.60676 14.96 6.00001 14.3532 6.00001 13.46H4.50001C4.50001 14.3532 3.89326 14.96 3.00001 14.96C2.10676 14.96 1.50001 14.3532 1.50001 13.46C1.50001 12.5667 2.10676 11.96 3.00001 11.96ZM5.25001 15.452C5.53193 15.7702 5.87841 16.0246 6.26638 16.1984C6.65434 16.3723 7.07489 16.4614 7.50001 16.46C7.92513 16.4614 8.34567 16.3723 8.73364 16.1984C9.12161 16.0246 9.46809 15.7702 9.75001 15.452C10.0319 15.7702 10.3784 16.0246 10.7664 16.1984C11.1543 16.3723 11.5749 16.4614 12 16.46C12.4251 16.4614 12.8457 16.3723 13.2336 16.1984C13.6216 16.0246 13.9681 15.7702 14.25 15.452C14.5319 15.7702 14.8784 16.0246 15.2664 16.1984C15.6543 16.3723 16.0749 16.4614 16.5 16.46C16.761 16.46 17.01 16.4045 17.25 16.343V19.46H2.25001V16.343C2.49001 16.4045 2.73901 16.46 3.00001 16.46C3.42513 16.4614 3.84567 16.3723 4.23364 16.1984C4.62161 16.0246 4.96809 15.7702 5.25001 15.452Z" fill="#AF2242"/>
</svg>
