<svg width="25" height="24" viewBox="0 0 25 24" xmlns="http://www.w3.org/2000/svg">
<path fill-rule="evenodd" clip-rule="evenodd" d="M9.99994 2.22024C10.6802 2.07399 11.3741 2.00025 12.0699 2.00024C14.8518 1.98663 17.5031 3.1792 19.3385 5.26971C21.1739 7.36021 22.0134 10.1435 21.6399 12.9002C21.0399 17.5002 16.4999 21.2202 11.8599 21.2202H5.19994C4.63381 21.2205 4.10916 20.9233 3.81819 20.4377C3.52722 19.9521 3.5127 19.3493 3.77994 18.8502L4.04994 18.3302C4.31866 17.8294 4.29959 17.2232 3.99994 16.7402C2.32164 14.1018 2.03349 10.8114 3.22768 7.92145C4.42187 5.03152 6.94873 2.90429 9.99994 2.22024ZM11.7799 19.7102C15.8566 19.6459 19.3235 16.7185 20.0699 12.7102C20.409 10.3873 19.7106 8.03269 18.1599 6.27024C16.6239 4.51251 14.4042 3.50291 12.0699 3.50024C11.4787 3.50137 10.8891 3.56167 10.3099 3.68024C7.73508 4.25314 5.59972 6.04251 4.58517 8.47742C3.57063 10.9123 3.80366 13.6885 5.20993 15.9202C5.80823 16.8601 5.85032 18.0504 5.31993 19.0302L5.04993 19.5402C5.02795 19.5736 5.02795 19.6169 5.04993 19.6502C5.08993 19.7102 5.14993 19.7102 5.14993 19.7102H11.7799Z" fill-opacity="0.5"/>
</svg>
