<svg width="29" height="29" viewBox="0 0 29 29" fill="none" xmlns="http://www.w3.org/2000/svg">
<path d="M22.9582 8.45834C22.9582 7.12917 21.8707 6.04167 20.5415 6.04167H18.1248C17.4603 6.04167 16.9165 6.58542 16.9165 7.25001C16.9165 7.91459 17.4603 8.45834 18.1248 8.45834H20.5415V11.6604L16.3365 16.9167H12.0832V12.0833C12.0832 11.4188 11.5394 10.875 10.8748 10.875H7.24984C4.57942 10.875 2.4165 13.0379 2.4165 15.7083V18.125C2.4165 18.7896 2.96025 19.3333 3.62484 19.3333H4.83317C4.83317 21.3392 6.45234 22.9583 8.45817 22.9583C10.464 22.9583 12.0832 21.3392 12.0832 19.3333H16.3365C17.0736 19.3333 17.7623 18.995 18.2215 18.4271L22.4265 13.1708C22.7769 12.7358 22.9582 12.2042 22.9582 11.6604V8.45834ZM8.45817 20.5417C7.79359 20.5417 7.24984 19.9979 7.24984 19.3333H9.6665C9.6665 19.9979 9.12275 20.5417 8.45817 20.5417Z" fill="#FDF7F7"/>
<path d="M7.24984 7.25H10.8748C11.5394 7.25 12.0832 7.79375 12.0832 8.45833C12.0832 9.12292 11.5394 9.66667 10.8748 9.66667H7.24984C6.58525 9.66667 6.0415 9.12292 6.0415 8.45833C6.0415 7.79375 6.58525 7.25 7.24984 7.25ZM22.9582 15.7083C20.9523 15.7083 19.3332 17.3275 19.3332 19.3333C19.3332 21.3392 20.9523 22.9583 22.9582 22.9583C24.964 22.9583 26.5832 21.3392 26.5832 19.3333C26.5832 17.3275 24.964 15.7083 22.9582 15.7083ZM22.9582 20.5417C22.2936 20.5417 21.7498 19.9979 21.7498 19.3333C21.7498 18.6688 22.2936 18.125 22.9582 18.125C23.6228 18.125 24.1665 18.6688 24.1665 19.3333C24.1665 19.9979 23.6228 20.5417 22.9582 20.5417Z" fill="#FDF7F7"/>
</svg>
