<svg width="122" height="40" viewBox="0 0 122 40" fill="none" xmlns="http://www.w3.org/2000/svg">
<path d="M8.7899 31.7057C9.6756 31.7057 10.4817 31.588 11.2082 31.3526C11.9347 31.1172 12.5816 30.7838 13.1489 30.3522V31.2644H16.7316V10.0782H12.6413V15.9044C12.1437 15.5905 11.5864 15.3502 10.9694 15.1834C10.3623 15.0167 9.70546 14.9333 8.99889 14.9333C7.45631 14.9333 6.11279 15.2962 4.96832 16.0221C3.82382 16.7479 2.93311 17.7434 2.29618 19.0087C1.6692 20.2642 1.35571 21.7011 1.35571 23.3195C1.35571 24.9085 1.66423 26.3356 2.28125 27.6009C2.90823 28.8662 3.77903 29.8667 4.89368 30.6023C6.00829 31.3379 7.30703 31.7057 8.7899 31.7057ZM9.44673 28.1453C8.57092 28.1453 7.85438 27.9295 7.2971 27.4979C6.73977 27.0663 6.32677 26.4877 6.05807 25.7618C5.78936 25.0262 5.65501 24.2121 5.65501 23.3195C5.65501 22.4368 5.79431 21.6325 6.073 20.9067C6.35164 20.171 6.77956 19.5874 7.35681 19.1559C7.94395 18.7145 8.69035 18.4938 9.59601 18.4938C10.8698 18.4938 11.7805 18.9401 12.3278 19.8326C12.8752 20.7154 13.1489 21.8777 13.1489 23.3195C13.1489 24.7614 12.8702 25.9286 12.3129 26.8211C11.7655 27.7039 10.8101 28.1453 9.44673 28.1453ZM28.7636 31.7057C30.3758 31.7057 31.794 31.3526 33.0181 30.6464C34.2521 29.9304 35.2125 28.9447 35.8992 27.6892C36.5958 26.4239 36.9442 24.9674 36.9442 23.3195C36.9442 21.6815 36.6008 20.2348 35.9141 18.9793C35.2275 17.714 34.2671 16.7234 33.033 16.0073C31.8089 15.2913 30.3858 14.9333 28.7636 14.9333C27.1713 14.9333 25.7631 15.2864 24.539 15.9926C23.3149 16.6988 22.3545 17.6846 21.6579 18.9499C20.9612 20.2054 20.6129 21.6619 20.6129 23.3195C20.6129 24.9576 20.9513 26.4092 21.628 27.6745C22.3147 28.93 23.2701 29.9157 24.4942 30.6317C25.7183 31.3477 27.1414 31.7057 28.7636 31.7057ZM28.7636 27.9687C27.4997 27.9687 26.5393 27.5519 25.8825 26.7182C25.2356 25.8746 24.9122 24.7417 24.9122 23.3195C24.9122 21.9365 25.2207 20.8184 25.8377 19.9651C26.4647 19.1019 27.44 18.6703 28.7636 18.6703C30.0474 18.6703 31.0128 19.0921 31.6597 19.9356C32.3165 20.7792 32.6449 21.9071 32.6449 23.3195C32.6449 24.6829 32.3214 25.8011 31.6746 26.674C31.0376 27.5371 30.0673 27.9687 28.7636 27.9687ZM40.7942 31.2644H44.9144V23.2018C44.9144 22.2112 45.0238 21.4167 45.2428 20.8184C45.4716 20.2201 45.7603 19.7689 46.1086 19.4648C46.4569 19.1509 46.8301 18.9401 47.2281 18.8322C47.6265 18.7243 47.9997 18.6703 48.3477 18.6703C49.2135 18.6703 49.8806 18.8616 50.348 19.2441C50.8257 19.6267 51.1691 20.1024 51.3781 20.6713C51.5871 21.2401 51.7116 21.8091 51.7513 22.3779C51.7914 22.937 51.811 23.398 51.811 23.7609V31.2644H55.9311V22.3485C55.9311 22.0837 55.9115 21.6619 55.8714 21.0832C55.8317 20.5045 55.7174 19.867 55.5281 19.1706C55.3391 18.4644 55.0205 17.7876 54.5727 17.1402C54.1351 16.4929 53.5179 15.9583 52.7216 15.5365C51.9257 15.1148 50.8957 14.9039 49.6315 14.9039C48.4671 14.9039 47.452 15.0952 46.5863 15.4777C45.7205 15.8602 44.9939 16.3702 44.4068 17.0078V15.3747H40.7942V31.2644ZM58.9093 31.2644H63.0891L64.4476 26.8506H72.5386L73.9269 31.2644H78.1067L71.5384 10.0782H65.4776L58.9093 31.2644ZM65.597 23.1136L68.4632 13.8299L71.3742 23.1136H65.597ZM88.9169 31.7057C90.0118 31.7057 91.0717 31.5684 92.0966 31.2938C93.1318 31.0192 94.0573 30.6072 94.8732 30.0579C95.6896 29.4988 96.3362 28.7976 96.8139 27.954C97.3018 27.1007 97.5454 26.1051 97.5454 24.9674C97.5454 23.8982 97.3415 23.0155 96.9333 22.3191C96.5354 21.6227 96.0227 21.0636 95.3957 20.6418C94.779 20.2102 94.132 19.8768 93.4551 19.6414C92.7786 19.3962 92.1615 19.2 91.604 19.0529L87.872 18.0524C87.4143 17.9347 86.9665 17.7876 86.5285 17.611C86.0909 17.4345 85.7275 17.204 85.4387 16.9195C85.1504 16.6253 85.0058 16.2477 85.0058 15.7867C85.0058 15.2864 85.1803 14.8548 85.5283 14.4919C85.8866 14.1291 86.3447 13.8544 86.9017 13.668C87.4689 13.4719 88.0712 13.3836 88.708 13.4032C89.6834 13.4326 90.5791 13.7171 91.395 14.2565C92.2114 14.796 92.7385 15.5807 92.9774 16.6106L97.3662 15.8749C96.8489 13.8838 95.8436 12.3586 94.3508 11.2993C92.8579 10.24 90.9971 9.69562 88.7677 9.6662C87.2949 9.65641 85.9514 9.88197 84.7371 10.343C83.5233 10.804 82.5529 11.5053 81.8261 12.4469C81.0998 13.3885 80.7364 14.5704 80.7364 15.9926C80.7364 17.0029 80.9057 17.8415 81.2439 18.5085C81.5924 19.1656 82.0253 19.6953 82.5427 20.0975C83.0605 20.4996 83.5928 20.8086 84.14 21.0244C84.6974 21.2401 85.1849 21.4069 85.6029 21.5246L91.186 23.143C92.022 23.3882 92.5794 23.6971 92.8579 24.0699C93.1369 24.4328 93.2759 24.83 93.2759 25.2616C93.2759 25.8501 93.0721 26.3454 92.6639 26.7476C92.266 27.1497 91.7533 27.4538 91.1263 27.6598C90.4993 27.8657 89.8527 27.9687 89.1856 27.9687C87.9914 27.9687 86.9268 27.6401 85.9911 26.983C85.0557 26.3258 84.4385 25.3891 84.14 24.1729L79.9004 24.7908C80.1197 26.2228 80.637 27.4587 81.4529 28.4984C82.2791 29.5283 83.3292 30.3228 84.6027 30.8818C85.8866 31.4311 87.3248 31.7057 88.9169 31.7057Z" fill="#FDF7F7"/>
<path d="M107.926 6.51084C107.093 6.73309 106.472 7.36036 106.287 8.16542C106.236 8.3679 106.206 8.73834 106.206 9.06923V9.6273L105.911 9.71622C105.465 9.84463 105.019 10.1262 104.628 10.5163C104.026 11.1139 103.701 11.8943 103.701 12.7339V13.1389L103.44 13.2575C103.074 13.4204 102.648 13.8501 102.453 14.2403C102.062 15.0354 102.153 15.8998 102.714 16.6209C102.884 16.8431 102.889 16.853 102.799 16.932C102.659 17.0604 102.358 17.6482 102.272 17.9741C102.157 18.4088 102.157 29.2349 102.272 29.6695C102.533 30.6573 103.435 31.497 104.423 31.6698C104.618 31.7044 106.011 31.7241 108.482 31.7241C112.616 31.7241 112.576 31.7241 113.207 31.4179C113.818 31.1216 114.28 30.5981 114.57 29.8572L114.701 29.5263L114.715 24.0441C114.726 20.2609 114.715 18.4631 114.675 18.2507C114.6 17.826 114.455 17.4555 114.225 17.1197L114.034 16.8382L114.199 16.6505C114.806 15.9936 114.896 14.8922 114.41 14.0773C114.24 13.7958 113.789 13.3908 113.483 13.2426L113.237 13.129L113.207 12.6599C113.167 12.0869 113.082 11.761 112.842 11.2769C112.5 10.5953 111.674 9.90886 110.932 9.69153L110.717 9.63227V8.97539C110.717 8.26417 110.641 7.91847 110.401 7.51346C110.24 7.24675 109.794 6.82693 109.524 6.68863C109.043 6.44666 108.432 6.37751 107.926 6.51084ZM108.812 8.01231C109.173 8.19999 109.183 8.2444 109.213 9.44951C109.238 10.4422 109.249 10.541 109.344 10.6645C109.524 10.9065 109.679 10.9856 110.07 11.0349C111.007 11.1485 111.614 11.7511 111.699 12.65L111.734 13.0056H108.467H105.204V12.7092C105.204 12.2943 105.364 11.9042 105.67 11.5881C105.996 11.2473 106.322 11.0942 106.843 11.0349C107.133 11.0053 107.299 10.9608 107.409 10.8818C107.68 10.6942 107.71 10.546 107.71 9.50385C107.71 8.96059 107.73 8.5062 107.765 8.42716C107.926 8.00243 108.421 7.80486 108.812 8.01231ZM112.821 14.5811C113.097 14.7243 113.197 14.8972 113.197 15.2281C113.197 15.559 113.097 15.7319 112.821 15.8751C112.656 15.964 112.44 15.9689 108.502 15.9689C105.695 15.9689 104.312 15.9541 104.217 15.9146C103.726 15.7319 103.56 15.1589 103.886 14.7787C104.142 14.4774 103.951 14.4922 108.487 14.4873C112.44 14.4873 112.656 14.4922 112.821 14.5811ZM112.506 17.5296C112.731 17.6383 112.946 17.8556 113.087 18.1124L113.197 18.3149V23.8218V29.3287L113.087 29.5313C112.946 29.793 112.731 30.0054 112.486 30.1239C112.305 30.2128 112.125 30.2177 108.436 30.2177C104.578 30.2177 104.578 30.2177 104.377 30.1091C104.117 29.9708 103.931 29.7732 103.806 29.5016C103.716 29.304 103.701 29.1756 103.701 28.4002V27.526H104.768C105.711 27.526 105.851 27.5162 106.006 27.4322C106.282 27.289 106.382 27.1161 106.382 26.7852C106.382 26.4543 106.282 26.2814 106.006 26.1382C105.851 26.0542 105.711 26.0444 104.768 26.0444H103.701V25.3035V24.5627H105.52C107.194 24.5627 107.349 24.5577 107.509 24.4688C107.785 24.3256 107.885 24.1527 107.885 23.8218C107.885 23.4909 107.785 23.3181 107.509 23.1748C107.349 23.0859 107.194 23.081 105.52 23.081H103.701V22.3401V21.5993H104.768C105.711 21.5993 105.851 21.5894 106.006 21.5055C106.282 21.3622 106.382 21.1894 106.382 20.8585C106.382 20.5276 106.282 20.3547 106.006 20.2115C105.851 20.1275 105.711 20.1176 104.768 20.1176H103.701V19.2385C103.701 18.4236 103.711 18.3495 103.821 18.1174C103.946 17.8556 104.132 17.658 104.377 17.5346C104.513 17.4654 104.973 17.4555 108.427 17.4506C111.95 17.4506 112.345 17.4605 112.506 17.5296Z" fill="#FDF7F7"/>
</svg>
