<svg width="38" height="54" viewBox="0 0 38 54" fill="none" xmlns="http://www.w3.org/2000/svg">
<rect width="38" height="54" rx="19" fill="#F7CAC9"/>
<ellipse cx="19.0001" cy="20.3147" rx="15.7429" ry="15.66" fill="#FDF7F7"/>
<path fill-rule="evenodd" clip-rule="evenodd" d="M33.2335 20.3516C33.2335 28.1848 26.8476 34.5485 18.9535 34.5485C11.654 34.5485 5.64398 29.1072 4.78015 22.0942C4.73194 21.7028 4.40662 21.398 4.01226 21.398C3.57699 21.398 3.23077 21.7667 3.28171 22.1989C4.20084 29.9975 10.8668 36.0485 18.9535 36.0485C27.6686 36.0485 34.7335 29.0207 34.7335 20.3516C34.7335 11.6824 27.6686 4.65466 18.9535 4.65466C10.8037 4.65466 4.09684 10.8005 3.26124 18.6871C3.21575 19.1164 3.56062 19.4795 3.99233 19.4795C4.39 19.4795 4.7168 19.1695 4.76077 18.7743C5.54973 11.6816 11.5967 6.15466 18.9535 6.15466C26.8476 6.15466 33.2335 12.5183 33.2335 20.3516Z" fill="#AF2242"/>
<ellipse cx="10.8571" cy="25.1747" rx="3.25714" ry="3.24" fill="#F7CAC9"/>
<ellipse cx="27.1429" cy="25.1747" rx="3.25714" ry="3.24" fill="#F7CAC9"/>
<path d="M23.3338 10.1718C24.1332 7.80455 22.3774 5.70112 21.3995 4.94531C24.4723 5.10199 25.0898 7.89766 25.0144 9.27592C24.9838 10.4168 24.2691 12.7803 21.6558 13.1075C19.0424 13.4347 18.2744 11.689 18.2171 10.7752C18.8548 12.4037 20.5872 12.2291 21.3736 11.9383C22.4495 11.7309 23.1286 10.6742 23.3338 10.1718Z" fill="#AF2242"/>
<rect x="0.75" y="0.75" width="36.5" height="52.5" rx="18.25" stroke="#AF2242" stroke-width="1.5"/>
<path fill-rule="evenodd" clip-rule="evenodd" d="M25.752 44.7788C25.479 45.0978 25.5212 45.5788 25.8455 45.8456L30.0768 49.3254C30.3967 49.5885 30.8693 49.5425 31.1324 49.2226C31.3955 48.9026 31.3495 48.43 31.0296 48.1669L26.7983 44.687C26.4827 44.4275 26.0175 44.4683 25.752 44.7788ZM23.4174 43.8487C23.733 44.1082 24.1982 44.0674 24.4638 43.7569C24.7367 43.4379 24.6945 42.9569 24.3702 42.6901L13.1753 33.4832C12.8554 33.2201 12.3827 33.2661 12.1196 33.586C11.8565 33.906 11.9026 34.3786 12.2225 34.6417L23.4174 43.8487Z" fill="#AF2242"/>
<ellipse cx="24.0327" cy="20.5312" rx="1.41369" ry="1.40625" fill="#AF2242"/>
<ellipse cx="13.8541" cy="20.5312" rx="1.41369" ry="1.40625" fill="#AF2242"/>
<path fill-rule="evenodd" clip-rule="evenodd" d="M16.2943 22.5C15.9433 22.5 15.6818 22.8281 15.8515 23.1354C16.3767 24.0861 17.5705 24.75 18.9592 24.75C20.3479 24.75 21.5418 24.0861 22.0669 23.1354C22.2366 22.8281 21.9752 22.5 21.6242 22.5C21.4013 22.5 21.206 22.639 21.075 22.8194C20.7095 23.3228 19.9899 23.75 18.9592 23.75C17.9285 23.75 17.2089 23.3228 16.8434 22.8194C16.7125 22.639 16.5172 22.5 16.2943 22.5Z" fill="#AF2242"/>
</svg>
