<svg width="25" height="24" viewBox="0 0 25 24" xmlns="http://www.w3.org/2000/svg">
<path d="M20.5 11C20.5 8.87827 19.6571 6.84344 18.1569 5.34315C16.6566 3.84285 14.6217 3 12.5 3C10.3783 3 8.34344 3.84285 6.84315 5.34315C5.34285 6.84344 4.5 8.87827 4.5 11" stroke-opacity="0.5" stroke-width="1.5" stroke-linecap="round" stroke-linejoin="round"/>
<path d="M2.5 15.438V13.562C2.50007 13.116 2.6492 12.6828 2.9237 12.3313C3.19821 11.9798 3.58232 11.7302 4.015 11.622L5.755 11.186C5.84342 11.164 5.93569 11.1624 6.02481 11.1813C6.11393 11.2003 6.19757 11.2393 6.26937 11.2954C6.34118 11.3515 6.39926 11.4232 6.43922 11.5051C6.47918 11.587 6.49997 11.6769 6.5 11.768V17.231C6.50016 17.3223 6.47947 17.4124 6.43952 17.4946C6.39957 17.5767 6.34141 17.6486 6.26946 17.7048C6.19751 17.761 6.11369 17.8001 6.02436 17.819C5.93503 17.8379 5.84256 17.8362 5.754 17.814L4.014 17.379C3.58151 17.2707 3.19762 17.0209 2.92331 16.6694C2.649 16.3179 2.50001 15.8849 2.5 15.439V15.438Z"  stroke-opacity="0.5" stroke-width="1.5"/>
<path d="M22.5 15.438V13.562C22.4999 13.116 22.3508 12.6828 22.0763 12.3313C21.8018 11.9798 21.4177 11.7302 20.985 11.622L19.245 11.186C19.1566 11.164 19.0643 11.1624 18.9752 11.1813C18.8861 11.2003 18.8024 11.2393 18.7306 11.2954C18.6588 11.3515 18.6007 11.4232 18.5608 11.5051C18.5208 11.587 18.5 11.6769 18.5 11.768V17.231C18.4999 17.3222 18.5206 17.4122 18.5604 17.4942C18.6003 17.5763 18.6584 17.6481 18.7302 17.7043C18.8021 17.7605 18.8857 17.7996 18.9749 17.8186C19.0641 17.8376 19.1565 17.836 19.245 17.814L20.985 17.379C21.4177 17.2708 21.8018 17.0212 22.0763 16.6697C22.3508 16.3182 22.4999 15.885 22.5 15.439V15.438Z"  stroke-opacity="0.5" stroke-width="1.5"/>
<path d="M20.5 18V18.5C20.5 19.0304 20.2893 19.5391 19.9142 19.9142C19.5391 20.2893 19.0304 20.5 18.5 20.5H15" stroke-opacity="0.5" stroke-width="1.5"/>
<path d="M14 22H11C10.6022 22 10.2206 21.842 9.93934 21.5607C9.65804 21.2794 9.5 20.8978 9.5 20.5C9.5 20.1022 9.65804 19.7206 9.93934 19.4393C10.2206 19.158 10.6022 19 11 19H14C14.3978 19 14.7794 19.158 15.0607 19.4393C15.342 19.7206 15.5 20.1022 15.5 20.5C15.5 20.8978 15.342 21.2794 15.0607 21.5607C14.7794 21.842 14.3978 22 14 22Z" stroke-opacity="0.5" stroke-width="1.5"/>
</svg>
