<svg width="192" height="72" viewBox="0 0 192 72" fill="none" xmlns="http://www.w3.org/2000/svg">
<path d="M2.53366 68.9996H3.45895V65.3981C3.45895 64.9816 3.56923 64.6473 3.78978 64.3953C4.01378 64.1433 4.30843 64.0173 4.67372 64.0173C5.03901 64.0173 5.33194 64.1416 5.55249 64.3901C5.77304 64.6386 5.88332 64.9781 5.88332 65.4086L5.87815 68.9996H6.79311L6.79828 65.3981C6.79828 65.0796 6.85686 64.8189 6.97403 64.6158C7.09119 64.4128 7.24283 64.2624 7.42892 64.1643C7.61501 64.0663 7.81144 64.0173 8.01821 64.0173C8.36971 64.0173 8.65749 64.1381 8.88147 64.3796C9.10544 64.6176 9.21747 64.9483 9.21747 65.3718L9.2123 68.9996H10.1324L10.1376 65.1671C10.1376 64.5616 9.97048 64.0803 9.63618 63.7233C9.30187 63.3628 8.84359 63.1826 8.26116 63.1826C7.89245 63.1826 7.55984 63.2666 7.26351 63.4346C6.96713 63.5991 6.73625 63.8266 6.57083 64.1171C6.41919 63.8196 6.20381 63.5904 5.92468 63.4293C5.64554 63.2649 5.31815 63.1826 4.94252 63.1826C4.60824 63.1826 4.30326 63.2508 4.02757 63.3873C3.75532 63.5203 3.53132 63.7023 3.35557 63.9333V63.3296H2.53366V68.9996ZM13.8527 69.1571C14.3938 69.1571 14.8814 69.0206 15.3156 68.7476C15.7498 68.4711 16.0773 68.0826 16.2978 67.5821L15.4138 67.2723C15.0933 67.9374 14.5592 68.2698 13.8114 68.2698C13.2979 68.2698 12.8947 68.1106 12.6018 67.7921C12.3123 67.4701 12.1486 67.0151 12.1107 66.4271H16.3908C16.4184 65.7551 16.3323 65.1759 16.1323 64.6893C15.9359 64.2028 15.6396 63.8283 15.2432 63.5658C14.8504 63.3033 14.3731 63.1721 13.8114 63.1721C13.2704 63.1721 12.7982 63.2964 12.395 63.5448C11.9918 63.7899 11.6782 64.1398 11.4542 64.5948C11.2337 65.0463 11.1234 65.5818 11.1234 66.2013C11.1234 66.7929 11.2354 67.3108 11.4594 67.7553C11.6868 68.1963 12.0056 68.5411 12.4157 68.7896C12.8258 69.0346 13.3048 69.1571 13.8527 69.1571ZM13.8424 64.0121C14.7901 64.0121 15.3208 64.5669 15.4345 65.6763H12.1262C12.1917 65.1373 12.3691 64.7261 12.6586 64.4426C12.9481 64.1556 13.3427 64.0121 13.8424 64.0121ZM17.3851 68.9996H18.3155V66.0123C18.3155 65.3544 18.4551 64.8661 18.7342 64.5476C19.0169 64.2291 19.389 64.0698 19.8508 64.0698C20.2437 64.0698 20.5504 64.1696 20.7709 64.3691C20.9915 64.5686 21.1449 64.8276 21.231 65.1461C21.3206 65.4646 21.3654 65.8023 21.3654 66.1593V68.9996H22.2958V65.8653C22.2958 65.5959 22.2631 65.3071 22.1976 64.9991C22.1356 64.6876 22.0219 64.3953 21.8565 64.1223C21.6945 63.8458 21.4688 63.6201 21.1793 63.4451C20.8933 63.2701 20.5246 63.1826 20.0731 63.1826C19.2598 63.1826 18.6395 63.4749 18.2122 64.0593V63.3296H17.3851V68.9996ZM25.8315 69.1571C26.1762 69.1571 26.4846 69.0976 26.7568 68.9786C27.0326 68.8596 27.2703 68.6934 27.4702 68.4798V69.0258C27.4805 70.1913 26.9584 70.7741 25.9039 70.7741C25.6317 70.7741 25.3698 70.7111 25.1182 70.5851C24.8666 70.4591 24.6719 70.2579 24.534 69.9813L23.6915 70.4328C23.9258 70.8564 24.2429 71.1696 24.6426 71.3726C25.0424 71.5756 25.4611 71.6771 25.8987 71.6771C26.5673 71.6771 27.1118 71.5318 27.5322 71.2413C27.9561 70.9543 28.2215 70.5099 28.3283 69.9078C28.3559 69.7678 28.3731 69.6261 28.38 69.4826C28.3903 69.3426 28.3955 69.1938 28.3955 69.0363V63.3296H27.5787V63.9648C27.3754 63.7164 27.1273 63.5221 26.8344 63.3821C26.5415 63.2421 26.2055 63.1721 25.8264 63.1721C25.3094 63.1721 24.8649 63.3033 24.4927 63.5658C24.1205 63.8248 23.8328 64.1801 23.6294 64.6316C23.4296 65.0831 23.3296 65.5923 23.3296 66.1593C23.3296 66.7263 23.4296 67.2356 23.6294 67.6871C23.8293 68.1386 24.1153 68.4973 24.4875 68.7633C24.8632 69.0258 25.3112 69.1571 25.8315 69.1571ZM25.9452 68.3013C25.58 68.3013 25.275 68.2068 25.0303 68.0178C24.7891 67.8288 24.6082 67.5733 24.4875 67.2513C24.3669 66.9258 24.3066 66.5619 24.3066 66.1593C24.3066 65.7603 24.3652 65.3998 24.4824 65.0778C24.603 64.7559 24.7856 64.5003 25.0303 64.3113C25.2784 64.1223 25.592 64.0278 25.9711 64.0278C26.5156 64.0278 26.9188 64.2273 27.1807 64.6263C27.4461 65.0218 27.5787 65.5329 27.5787 66.1593C27.5787 66.7824 27.4478 67.2951 27.1859 67.6976C26.924 68.1001 26.5105 68.3013 25.9452 68.3013ZM29.8337 68.9996H30.7642V66.0123C30.7642 65.3544 30.9037 64.8661 31.1829 64.5476C31.4654 64.2291 31.8376 64.0698 32.2994 64.0698C32.6923 64.0698 32.999 64.1696 33.2195 64.3691C33.44 64.5686 33.5934 64.8276 33.6796 65.1461C33.7692 65.4646 33.814 65.8023 33.814 66.1593V68.9996H34.7445V65.8653C34.7445 65.5959 34.7117 65.3071 34.6462 64.9991C34.5842 64.6876 34.4705 64.3953 34.3051 64.1223C34.1431 63.8458 33.9174 63.6201 33.6279 63.4451C33.3418 63.2701 32.9731 63.1826 32.5217 63.1826C31.7083 63.1826 31.088 63.4749 30.6608 64.0593V61.4396H29.8337V68.9996ZM38.2077 69.1466C39.021 69.1466 39.6413 68.8543 40.0686 68.2698V68.9996H40.8905V63.3296H39.9652V66.3168C39.9652 66.9714 39.824 67.4596 39.5414 67.7816C39.2622 68.1001 38.8918 68.2593 38.43 68.2593C38.0371 68.2593 37.7304 68.1596 37.5098 67.9601C37.2927 67.7606 37.1394 67.5016 37.0498 67.1831C36.9602 66.8611 36.9154 66.5233 36.9154 66.1698V63.3296H35.9849V66.4638C35.9849 66.7333 36.0159 67.0239 36.078 67.3353C36.1435 67.6434 36.2572 67.9356 36.4191 68.2121C36.5846 68.4851 36.812 68.7091 37.1015 68.8841C37.391 69.0591 37.7597 69.1466 38.2077 69.1466ZM42.3327 68.9996H43.1546V68.3591C43.3579 68.6076 43.6043 68.8036 43.8938 68.9471C44.1867 69.0871 44.5227 69.1571 44.9018 69.1571C45.4222 69.1571 45.8684 69.0258 46.2406 68.7633C46.6163 68.4973 46.904 68.1386 47.1039 67.6871C47.3038 67.2356 47.4037 66.7263 47.4037 66.1593C47.4037 65.5923 47.3038 65.0831 47.1039 64.6316C46.904 64.1801 46.6163 63.8248 46.2406 63.5658C45.8684 63.3033 45.4239 63.1721 44.9069 63.1721C44.5589 63.1721 44.2471 63.2316 43.9713 63.3506C43.6956 63.4696 43.4579 63.6341 43.258 63.8441V61.4396H42.3327V68.9996ZM44.7881 68.3013C44.2264 68.3013 43.8128 68.1001 43.5474 67.6976C43.2856 67.2951 43.1546 66.7824 43.1546 66.1593C43.1546 65.5329 43.2856 65.0218 43.5474 64.6263C43.8128 64.2273 44.2177 64.0278 44.7622 64.0278C45.1413 64.0278 45.4532 64.1223 45.6978 64.3113C45.946 64.5003 46.1287 64.7559 46.2458 65.0778C46.3664 65.3998 46.4267 65.7603 46.4267 66.1593C46.4267 66.5619 46.3664 66.9258 46.2458 67.2513C46.1252 67.5733 45.9443 67.8288 45.703 68.0178C45.4618 68.2068 45.1568 68.3013 44.7881 68.3013ZM50.6563 69.1466C51.4696 69.1466 52.0899 68.8543 52.5172 68.2698V68.9996H53.3391V63.3296H52.4139V66.3168C52.4139 66.9714 52.2725 67.4596 51.99 67.7816C51.7108 68.1001 51.3404 68.2593 50.8786 68.2593C50.4857 68.2593 50.179 68.1596 49.9585 67.9601C49.7414 67.7606 49.588 67.5016 49.4984 67.1831C49.4088 66.8611 49.364 66.5233 49.364 66.1698V63.3296H48.4335V66.4638C48.4335 66.7333 48.4646 67.0239 48.5266 67.3353C48.592 67.6434 48.7057 67.9356 48.8678 68.2121C49.0332 68.4851 49.2606 68.7091 49.5501 68.8841C49.8396 69.0591 50.2083 69.1466 50.6563 69.1466ZM54.7813 68.9996H55.7118V66.0123C55.7118 65.3544 55.8513 64.8661 56.1305 64.5476C56.413 64.2291 56.7852 64.0698 57.247 64.0698C57.6399 64.0698 57.9466 64.1696 58.1671 64.3691C58.3876 64.5686 58.541 64.8276 58.6272 65.1461C58.7168 65.4646 58.7616 65.8023 58.7616 66.1593V68.9996H59.6921V65.8653C59.6921 65.5959 59.6593 65.3071 59.5938 64.9991C59.5318 64.6876 59.4181 64.3953 59.2527 64.1223C59.0907 63.8458 58.865 63.6201 58.5755 63.4451C58.2894 63.2701 57.9207 63.1826 57.4693 63.1826C56.6559 63.1826 56.0356 63.4749 55.6084 64.0593V63.3296H54.7813V68.9996ZM63.2277 69.1571C63.5723 69.1571 63.8808 69.0976 64.153 68.9786C64.4287 68.8596 64.6665 68.6934 64.8664 68.4798V69.0258C64.8767 70.1913 64.3546 70.7741 63.3001 70.7741C63.0278 70.7741 62.7659 70.7111 62.5144 70.5851C62.2628 70.4591 62.0681 70.2579 61.9303 69.9813L61.0877 70.4328C61.322 70.8564 61.639 71.1696 62.0388 71.3726C62.4385 71.5756 62.8573 71.6771 63.2949 71.6771C63.9635 71.6771 64.5079 71.5318 64.9284 71.2413C65.3523 70.9543 65.6176 70.5099 65.7245 69.9078C65.752 69.7678 65.7692 69.6261 65.7762 69.4826C65.7865 69.3426 65.7917 69.1938 65.7917 69.0363V63.3296H64.9749V63.9648C64.7716 63.7164 64.5234 63.5221 64.2306 63.3821C63.9376 63.2421 63.6016 63.1721 63.2226 63.1721C62.7056 63.1721 62.2611 63.3033 61.8889 63.5658C61.5167 63.8248 61.2289 64.1801 61.0256 64.6316C60.8257 65.0831 60.7258 65.5923 60.7258 66.1593C60.7258 66.7263 60.8257 67.2356 61.0256 67.6871C61.2255 68.1386 61.5116 68.4973 61.8837 68.7633C62.2593 69.0258 62.7073 69.1571 63.2277 69.1571ZM63.3415 68.3013C62.9761 68.3013 62.6712 68.2068 62.4265 68.0178C62.1852 67.8288 62.0043 67.5733 61.8837 67.2513C61.7631 66.9258 61.7028 66.5619 61.7028 66.1593C61.7028 65.7603 61.7614 65.3998 61.8786 65.0778C61.9992 64.7559 62.1818 64.5003 62.4265 64.3113C62.6746 64.1223 62.9882 64.0278 63.3673 64.0278C63.9118 64.0278 64.315 64.2273 64.5769 64.6263C64.8422 65.0218 64.9749 65.5329 64.9749 66.1593C64.9749 66.7824 64.8439 67.2951 64.5821 67.6976C64.3201 68.1001 63.9066 68.3013 63.3415 68.3013ZM67.2298 68.9996H68.1655V66.2696L70.7036 68.9996H71.9907L69.2355 66.1646L71.7012 63.3296H70.5071L68.1655 66.0596V61.4396H67.235L67.2298 68.9996ZM74.0921 69.1571C75.0225 69.1571 75.7115 68.8106 76.1598 68.1176V68.9996H76.9765V65.4926C76.9765 65.2686 76.9661 65.0551 76.9455 64.8521C76.9248 64.6456 76.8746 64.4548 76.7956 64.2798C76.6368 63.9088 76.3754 63.6324 76.0098 63.4503C75.6443 63.2649 75.2101 63.1721 74.7072 63.1721C74.0766 63.1721 73.5666 63.3138 73.1772 63.5973C72.7912 63.8808 72.5327 64.2711 72.4018 64.7681L73.2754 65.0358C73.3753 64.6893 73.5528 64.4373 73.8078 64.2798C74.0625 64.1223 74.3594 64.0436 74.6969 64.0436C75.1791 64.0436 75.5254 64.1538 75.7359 64.3743C75.9493 64.5913 76.0615 64.9256 76.0719 65.3771C75.6583 65.4366 75.2241 65.4996 74.7692 65.5661C74.318 65.6291 73.9163 65.7078 73.5649 65.8023C73.141 65.9283 72.8067 66.1261 72.562 66.3956C72.3174 66.6616 72.195 67.0186 72.195 67.4666C72.195 67.7711 72.2657 68.0511 72.407 68.3066C72.5517 68.5621 72.7636 68.7686 73.0428 68.9261C73.3254 69.0801 73.6751 69.1571 74.0921 69.1571ZM74.2316 68.3748C73.8354 68.3748 73.5494 68.2821 73.3736 68.0966C73.1979 67.9076 73.11 67.6959 73.11 67.4613C73.11 67.1953 73.1962 66.9924 73.3684 66.8523C73.5442 66.7089 73.7475 66.6003 73.9783 66.5268C74.2508 66.4498 74.5676 66.3851 74.9295 66.3326C75.2913 66.2801 75.6687 66.2276 76.0615 66.1751C76.0615 66.3046 76.0549 66.4516 76.0409 66.6161C76.0305 66.7806 76.0061 66.9311 75.9685 67.0676C75.9028 67.4176 75.7204 67.7238 75.4206 67.9863C75.1244 68.2453 74.7279 68.3748 74.2316 68.3748ZM78.3153 68.9996H79.2458V66.0123C79.2458 65.3544 79.3853 64.8661 79.6645 64.5476C79.9473 64.2291 80.3195 64.0698 80.781 64.0698C81.1739 64.0698 81.4804 64.1696 81.7012 64.3691C81.922 64.5686 82.0748 64.8276 82.1612 65.1461C82.2506 65.4646 82.2956 65.8023 82.2956 66.1593V68.9996H83.2261V65.8653C83.2261 65.5959 83.1936 65.3071 83.1279 64.9991C83.0658 64.6876 82.9521 64.3953 82.7867 64.1223C82.625 63.8458 82.399 63.6201 82.1095 63.4451C81.8238 63.2701 81.4545 63.1826 81.0033 63.1826C80.1903 63.1826 79.57 63.4749 79.1424 64.0593V63.3296H78.3153V68.9996ZM88.8317 69.1571C89.2106 69.1571 89.5451 69.0871 89.8346 68.9471C90.127 68.8036 90.3751 68.6076 90.5789 68.3591V68.9996H91.4009V61.4396H90.4756V63.8441C90.2754 63.6341 90.0377 63.4696 89.7622 63.3506C89.486 63.2316 89.1744 63.1721 88.8266 63.1721C88.3097 63.1721 87.8629 63.3033 87.4877 63.5658C87.1156 63.8248 86.829 64.1801 86.6297 64.6316C86.4295 65.0831 86.3298 65.5923 86.3298 66.1593C86.3298 66.7263 86.4295 67.2356 86.6297 67.6871C86.829 68.1386 87.1156 68.4973 87.4877 68.7633C87.8629 69.0258 88.3111 69.1571 88.8317 69.1571ZM88.9455 68.3013C88.5799 68.3013 88.2749 68.2068 88.0305 68.0178C87.789 67.8288 87.6081 67.5733 87.4877 67.2513C87.3666 66.9258 87.3068 66.5619 87.3068 66.1593C87.3068 65.7603 87.3652 65.3998 87.4826 65.0778C87.603 64.7559 87.7853 64.5003 88.0305 64.3113C88.2786 64.1223 88.5918 64.0278 88.9713 64.0278C89.5156 64.0278 89.9188 64.2273 90.1809 64.6263C90.446 65.0218 90.5789 65.5329 90.5789 66.1593C90.5789 66.7824 90.4475 67.2951 90.1861 67.6976C89.9239 68.1001 89.5104 68.3013 88.9455 68.3013ZM95.2268 69.1571C95.7814 69.1571 96.2592 69.0311 96.6587 68.7791C97.0619 68.5271 97.372 68.1753 97.5892 67.7238C97.81 67.2723 97.92 66.7509 97.92 66.1593C97.92 65.5749 97.8114 65.0586 97.5943 64.6106C97.3809 64.1591 97.0722 63.8073 96.669 63.5553C96.2658 63.2998 95.7851 63.1721 95.2268 63.1721C94.6826 63.1721 94.2085 63.2981 93.8053 63.5501C93.4021 63.7986 93.0905 64.1469 92.8697 64.5948C92.6489 65.0428 92.5388 65.5644 92.5388 66.1593C92.5388 66.7438 92.6459 67.2618 92.8593 67.7133C93.0764 68.1648 93.3866 68.5183 93.7898 68.7738C94.193 69.0294 94.6722 69.1571 95.2268 69.1571ZM95.2268 68.2698C94.6649 68.2698 94.2395 68.0791 93.95 67.6976C93.6605 67.3126 93.5158 66.7998 93.5158 66.1593C93.5158 65.5398 93.6554 65.0358 93.9345 64.6473C94.2137 64.2553 94.6442 64.0593 95.2268 64.0593C95.7991 64.0593 96.2282 64.2501 96.514 64.6316C96.7998 65.0131 96.943 65.5224 96.943 66.1593C96.943 66.7824 96.7998 67.2898 96.514 67.6818C96.2311 68.0739 95.8021 68.2698 95.2268 68.2698ZM99.0528 68.9996H99.9833V66.0123C99.9833 65.3544 100.123 64.8661 100.402 64.5476C100.685 64.2291 101.057 64.0698 101.519 64.0698C101.911 64.0698 102.218 64.1696 102.439 64.3691C102.659 64.5686 102.812 64.8276 102.899 65.1461C102.988 65.4646 103.033 65.8023 103.033 66.1593V68.9996H103.964V65.8653C103.964 65.5959 103.931 65.3071 103.865 64.9991C103.803 64.6876 103.69 64.3953 103.524 64.1223C103.362 63.8458 103.136 63.6201 102.847 63.4451C102.561 63.2701 102.192 63.1826 101.741 63.1826C100.928 63.1826 100.307 63.4749 99.8799 64.0593V63.3296H99.0528V68.9996ZM107.635 69.1571C108.19 69.1571 108.667 69.0311 109.067 68.7791C109.47 68.5271 109.78 68.1753 109.998 67.7238C110.218 67.2723 110.328 66.7509 110.328 66.1593C110.328 65.5749 110.22 65.0586 110.003 64.6106C109.789 64.1591 109.481 63.8073 109.077 63.5553C108.674 63.2998 108.193 63.1721 107.635 63.1721C107.09 63.1721 106.617 63.2981 106.214 63.5501C105.81 63.7986 105.498 64.1469 105.278 64.5948C105.057 65.0428 104.947 65.5644 104.947 66.1593C104.947 66.7438 105.054 67.2618 105.268 67.7133C105.485 68.1648 105.795 68.5183 106.198 68.7738C106.601 69.0294 107.08 69.1571 107.635 69.1571ZM107.635 68.2698C107.073 68.2698 106.648 68.0791 106.358 67.6976C106.069 67.3126 105.924 66.7998 105.924 66.1593C105.924 65.5398 106.064 65.0358 106.343 64.6473C106.622 64.2553 107.053 64.0593 107.635 64.0593C108.207 64.0593 108.636 64.2501 108.922 64.6316C109.208 65.0131 109.351 65.5224 109.351 66.1593C109.351 66.7824 109.208 67.2898 108.922 67.6818C108.639 68.0739 108.21 68.2698 107.635 68.2698ZM111.466 68.9996H112.392V66.1541C112.392 65.8181 112.437 65.4943 112.526 65.1828C112.615 64.8714 112.796 64.6176 113.069 64.4216C113.262 64.2781 113.473 64.1941 113.705 64.1696C113.939 64.1451 114.153 64.1574 114.346 64.2063V63.3296C114.097 63.2736 113.825 63.2736 113.529 63.3296C113.233 63.3856 112.977 63.5011 112.764 63.6761C112.578 63.8091 112.419 63.9928 112.288 64.2273V63.3296H111.466V68.9996ZM119.812 69.1571C120.001 69.1571 120.188 69.1449 120.37 69.1203C120.556 69.0958 120.739 69.0504 120.918 68.9838C121.104 68.9244 121.289 68.8386 121.471 68.7266C121.657 68.6111 121.82 68.4746 121.957 68.3171L122.743 69.0731L123.342 68.4221L122.396 67.5348C122.427 67.4229 122.452 67.2793 122.469 67.1043C122.486 66.9258 122.495 66.7123 122.495 66.4638V65.2353H121.652L121.657 66.2801C121.657 66.3676 121.656 66.4569 121.652 66.5478C121.649 66.6354 121.642 66.7228 121.631 66.8103L119.439 64.7418C119.343 64.6509 119.248 64.5633 119.155 64.4793C119.062 64.3918 118.982 64.3096 118.912 64.2326C118.792 64.0891 118.697 63.9543 118.628 63.8283C118.563 63.7023 118.53 63.5379 118.53 63.3348C118.53 62.8623 118.723 62.5299 119.109 62.3373C119.326 62.2323 119.569 62.1798 119.838 62.1798C120 62.1798 120.16 62.2008 120.318 62.2428C120.477 62.2813 120.618 62.3514 120.742 62.4528C120.894 62.5719 121.003 62.7223 121.068 62.9043L121.967 62.6681C121.916 62.5141 121.843 62.3636 121.75 62.2166C121.657 62.0696 121.546 61.9401 121.414 61.8281C121.215 61.6426 120.975 61.5078 120.696 61.4238C120.42 61.3363 120.134 61.2926 119.838 61.2926C119.659 61.2926 119.478 61.3083 119.295 61.3398C119.112 61.3678 118.933 61.4203 118.757 61.4973C118.392 61.6513 118.106 61.8946 117.899 62.2271C117.692 62.5596 117.589 62.9289 117.589 63.3348C117.589 63.6568 117.651 63.9316 117.775 64.1591C117.899 64.3866 118.082 64.6299 118.323 64.8888C118.206 64.9449 118.093 65.0131 117.982 65.0936C117.872 65.1706 117.772 65.2651 117.682 65.3771C117.51 65.5836 117.382 65.8198 117.299 66.0858C117.22 66.3519 117.183 66.6213 117.186 66.8943C117.196 67.1814 117.246 67.4526 117.336 67.7081C117.426 67.9601 117.565 68.1894 117.754 68.3958C117.996 68.6583 118.294 68.8509 118.649 68.9733C119.007 69.0958 119.395 69.1571 119.812 69.1571ZM119.832 68.2593C119.578 68.2593 119.321 68.2191 119.062 68.1386C118.804 68.0581 118.599 67.9269 118.447 67.7448C118.237 67.5069 118.13 67.2076 118.127 66.8471C118.12 66.4971 118.208 66.2066 118.39 65.9756C118.545 65.7866 118.756 65.6484 119.021 65.5608L121.29 67.6713C121.232 67.7343 121.156 67.8026 121.063 67.8761C120.973 67.9496 120.848 68.0266 120.685 68.1071C120.558 68.1701 120.425 68.2121 120.287 68.2331C120.15 68.2506 119.998 68.2593 119.832 68.2593ZM126.257 68.9996H127.182V66.1541C127.182 65.8181 127.227 65.4943 127.317 65.1828C127.406 64.8714 127.587 64.6176 127.859 64.4216C128.052 64.2781 128.264 64.1941 128.495 64.1696C128.729 64.1451 128.943 64.1574 129.136 64.2063V63.3296C128.888 63.2736 128.616 63.2736 128.32 63.3296C128.023 63.3856 127.768 63.5011 127.554 63.6761C127.368 63.8091 127.21 63.9928 127.079 64.2273V63.3296H126.257V68.9996ZM132.432 69.1571C132.973 69.1571 133.461 69.0206 133.895 68.7476C134.329 68.4711 134.656 68.0826 134.877 67.5821L133.993 67.2723C133.673 67.9374 133.139 68.2698 132.391 68.2698C131.877 68.2698 131.474 68.1106 131.181 67.7921C130.892 67.4701 130.728 67.0151 130.69 66.4271H134.97C134.997 65.7551 134.912 65.1759 134.712 64.6893C134.515 64.2028 134.219 63.8283 133.823 63.5658C133.43 63.3033 132.953 63.1721 132.391 63.1721C131.849 63.1721 131.377 63.2964 130.974 63.5448C130.571 63.7899 130.257 64.1398 130.033 64.5948C129.813 65.0463 129.703 65.5818 129.703 66.2013C129.703 66.7929 129.815 67.3108 130.039 67.7553C130.266 68.1963 130.585 68.5411 130.995 68.7896C131.405 69.0346 131.884 69.1571 132.432 69.1571ZM132.422 64.0121C133.369 64.0121 133.9 64.5669 134.014 65.6763H130.705C130.771 65.1373 130.948 64.7261 131.238 64.4426C131.527 64.1556 131.922 64.0121 132.422 64.0121ZM138.23 69.1518C138.926 69.1518 139.472 68.9961 139.869 68.6846C140.265 68.3731 140.464 67.9426 140.464 67.3931C140.464 67.0991 140.403 66.8523 140.283 66.6528C140.161 66.4498 139.958 66.2748 139.673 66.1278C139.39 65.9773 139.002 65.8391 138.51 65.7131C138.072 65.6011 137.737 65.5014 137.507 65.4138C137.279 65.3263 137.122 65.2336 137.036 65.1356C136.954 65.0376 136.912 64.9203 136.912 64.7838C136.912 64.5423 137.024 64.3498 137.248 64.2063C137.476 64.0629 137.77 63.9963 138.132 64.0068C138.511 64.0173 138.823 64.1118 139.068 64.2903C139.312 64.4653 139.457 64.7034 139.502 65.0043L140.443 64.8311C140.384 64.3306 140.143 63.9298 139.719 63.6288C139.298 63.3243 138.769 63.1721 138.132 63.1721C137.488 63.1721 136.969 63.3243 136.576 63.6288C136.183 63.9298 135.987 64.3306 135.987 64.8311C135.987 65.1006 136.045 65.3298 136.163 65.5188C136.283 65.7078 136.485 65.8741 136.767 66.0176C137.053 66.1611 137.442 66.2994 137.936 66.4323C138.391 66.5548 138.73 66.6616 138.954 66.7526C139.182 66.8401 139.331 66.9328 139.404 67.0308C139.476 67.1289 139.512 67.2583 139.512 67.4193C139.512 67.6959 139.402 67.9146 139.182 68.0756C138.964 68.2366 138.666 68.3171 138.287 68.3171C137.884 68.3171 137.546 68.2278 137.274 68.0493C137.002 67.8673 136.827 67.6224 136.752 67.3143L135.811 67.4666C135.907 67.9986 136.168 68.4133 136.592 68.7108C137.019 69.0048 137.565 69.1518 138.23 69.1518ZM141.706 62.3268H142.626V61.3608H141.706V62.3268ZM141.706 68.9996H142.626V63.3296H141.706V68.9996ZM144.173 71.5196H145.098V68.4746C145.297 68.6881 145.534 68.8561 145.806 68.9786C146.082 69.0976 146.393 69.1571 146.742 69.1571C147.262 69.1571 147.709 69.0258 148.081 68.7633C148.456 68.4973 148.744 68.1386 148.944 67.6871C149.143 67.2356 149.244 66.7263 149.244 66.1593C149.244 65.5923 149.143 65.0831 148.944 64.6316C148.744 64.1801 148.456 63.8248 148.081 63.5658C147.709 63.3033 147.264 63.1721 146.747 63.1721C146.367 63.1721 146.031 63.2421 145.739 63.3821C145.446 63.5221 145.198 63.7164 144.995 63.9648V63.3296H144.173V71.5196ZM146.628 68.3013C146.066 68.3013 145.653 68.1001 145.388 67.6976C145.125 67.2951 144.995 66.7824 144.995 66.1593C144.995 65.5329 145.125 65.0218 145.388 64.6263C145.653 64.2273 146.057 64.0278 146.602 64.0278C146.981 64.0278 147.293 64.1223 147.538 64.3113C147.786 64.5003 147.968 64.7559 148.086 65.0778C148.206 65.3998 148.267 65.7603 148.267 66.1593C148.267 66.5619 148.206 66.9258 148.086 67.2513C147.965 67.5733 147.784 67.8288 147.543 68.0178C147.302 68.2068 146.997 68.3013 146.628 68.3013ZM150.48 62.3268H151.4V61.3608H150.48V62.3268ZM150.48 68.9996H151.4V63.3296H150.48V68.9996ZM155.371 69.1571C155.911 69.1571 156.399 69.0206 156.834 68.7476C157.268 68.4711 157.595 68.0826 157.816 67.5821L156.932 67.2723C156.611 67.9374 156.077 68.2698 155.329 68.2698C154.815 68.2698 154.412 68.1106 154.12 67.7921C153.83 67.4701 153.666 67.0151 153.629 66.4271H157.909C157.936 65.7551 157.85 65.1759 157.65 64.6893C157.454 64.2028 157.157 63.8283 156.761 63.5658C156.368 63.3033 155.891 63.1721 155.329 63.1721C154.788 63.1721 154.316 63.2964 153.913 63.5448C153.51 63.7899 153.196 64.1398 152.972 64.5948C152.751 65.0463 152.641 65.5818 152.641 66.2013C152.641 66.7929 152.753 67.3108 152.977 67.7553C153.205 68.1963 153.523 68.5411 153.934 68.7896C154.344 69.0346 154.823 69.1571 155.371 69.1571ZM155.36 64.0121C156.308 64.0121 156.839 64.5669 156.953 65.6763H153.644C153.709 65.1373 153.887 64.7261 154.177 64.4426C154.466 64.1556 154.861 64.0121 155.36 64.0121ZM158.903 68.9996H159.833V66.0123C159.833 65.3544 159.973 64.8661 160.252 64.5476C160.535 64.2291 160.907 64.0698 161.369 64.0698C161.761 64.0698 162.068 64.1696 162.289 64.3691C162.51 64.5686 162.662 64.8276 162.749 65.1461C162.838 65.4646 162.883 65.8023 162.883 66.1593V68.9996H163.814V65.8653C163.814 65.5959 163.781 65.3071 163.715 64.9991C163.653 64.6876 163.54 64.3953 163.374 64.1223C163.213 63.8458 162.987 63.6201 162.697 63.4451C162.411 63.2701 162.042 63.1826 161.591 63.1826C160.778 63.1826 160.158 63.4749 159.73 64.0593V63.3296H158.903V68.9996ZM166.711 68.9996H167.667L168.251 67.2303H171.43L172.019 68.9996H172.976L170.484 61.4396H169.202L166.711 68.9996ZM168.541 66.3536L169.833 62.4213L171.141 66.3536H168.541ZM176.34 69.1571C176.857 69.1571 177.326 69.0696 177.746 68.8946C178.167 68.7196 178.501 68.4641 178.749 68.1281C179.001 67.7886 179.126 67.3756 179.126 66.8891C179.126 66.5251 179.061 66.2241 178.93 65.9861C178.799 65.7446 178.634 65.5521 178.434 65.4086C178.234 65.2616 178.028 65.1478 177.813 65.0673C177.604 64.9869 177.418 64.9239 177.255 64.8783L175.839 64.4636C175.656 64.4111 175.469 64.3446 175.275 64.2641C175.083 64.1801 174.921 64.0681 174.789 63.9281C174.662 63.7846 174.598 63.5973 174.598 63.3663C174.598 63.1318 174.669 62.9253 174.81 62.7468C174.955 62.5648 175.15 62.4231 175.394 62.3216C175.642 62.2201 175.919 62.1711 176.221 62.1746C176.694 62.1781 177.105 62.3146 177.457 62.5841C177.812 62.8501 178.028 63.2124 178.103 63.6708L179.08 63.4976C178.943 62.8081 178.62 62.2691 178.113 61.8806C177.61 61.4886 176.983 61.2909 176.232 61.2873C175.739 61.2838 175.295 61.3661 174.898 61.5341C174.505 61.7021 174.195 61.9453 173.967 62.2638C173.74 62.5788 173.626 62.9604 173.626 63.4083C173.626 63.7794 173.702 64.0873 173.854 64.3323C174.009 64.5774 174.209 64.7733 174.453 64.9203C174.702 65.0638 174.964 65.1776 175.239 65.2616L177.136 65.8338C177.402 65.9143 177.641 66.0369 177.855 66.2013C178.069 66.3624 178.175 66.6091 178.175 66.9416C178.175 67.2146 178.095 67.4508 177.932 67.6503C177.774 67.8498 177.56 68.0038 177.291 68.1123C177.023 68.2173 176.721 68.2698 176.387 68.2698C175.867 68.2698 175.417 68.1369 175.038 67.8708C174.659 67.6014 174.409 67.2286 174.288 66.7526L173.337 66.9048C173.42 67.3668 173.598 67.7676 173.869 68.1071C174.145 68.4431 174.493 68.7021 174.913 68.8841C175.337 69.0661 175.813 69.1571 176.34 69.1571ZM180.315 68.9996H181.235V61.4396H180.315V68.9996Z" fill="#AF2242"/>
<path d="M13.9143 51.7202C15.3164 51.7202 16.5924 51.5282 17.7425 51.1442C18.8925 50.7602 19.9165 50.2162 20.8145 49.5122V51.0002H26.4859V16.4401H20.011V25.9441C19.2233 25.4321 18.3411 25.0401 17.3644 24.7681C16.4034 24.4961 15.3636 24.3601 14.2451 24.3601C11.8033 24.3601 9.6765 24.9521 7.86483 26.1361C6.05311 27.3201 4.64314 28.9441 3.63489 31.0081C2.64239 33.0562 2.14615 35.4002 2.14615 38.0402C2.14615 40.6322 2.63452 42.9602 3.61126 45.0242C4.60375 47.0882 5.98221 48.7202 7.74668 49.9202C9.51109 51.1202 11.567 51.7202 13.9143 51.7202ZM14.9541 45.9122C13.5677 45.9122 12.4334 45.5602 11.5512 44.8562C10.669 44.1522 10.0152 43.2082 9.58988 42.0242C9.16453 40.8242 8.95185 39.4961 8.95185 38.0402C8.95185 36.6002 9.17235 35.2882 9.61351 34.1041C10.0546 32.9041 10.732 31.9522 11.6458 31.2481C12.5752 30.5281 13.7567 30.1681 15.1904 30.1681C17.2068 30.1681 18.6483 30.8962 19.5148 32.3521C20.3812 33.7921 20.8145 35.6882 20.8145 38.0402C20.8145 40.3922 20.3733 42.2962 19.4912 43.7522C18.6247 45.1922 17.1123 45.9122 14.9541 45.9122ZM45.5323 51.7202C48.0844 51.7202 50.3293 51.1442 52.2671 49.9922C54.2205 48.8242 55.7408 47.2162 56.8278 45.1682C57.9305 43.1042 58.4819 40.7282 58.4819 38.0402C58.4819 35.3681 57.9384 33.0082 56.8514 30.9601C55.7644 28.8961 54.2441 27.2801 52.2907 26.1121C50.353 24.9441 48.1001 24.3601 45.5323 24.3601C43.0116 24.3601 40.7825 24.9361 38.8448 26.0881C36.9071 27.2401 35.3868 28.8481 34.284 30.9121C33.1812 32.9602 32.6299 35.3362 32.6299 38.0402C32.6299 40.7122 33.1655 43.0802 34.2368 45.1442C35.3238 47.1922 36.8362 48.8002 38.7739 49.9682C40.7116 51.1362 42.9644 51.7202 45.5323 51.7202ZM45.5323 45.6242C43.5315 45.6242 42.0113 44.9442 40.9715 43.5842C39.9475 42.2082 39.4355 40.3601 39.4355 38.0402C39.4355 35.7842 39.9239 33.9601 40.9007 32.5681C41.8931 31.1602 43.437 30.4561 45.5323 30.4561C47.5645 30.4561 49.0926 31.1441 50.1167 32.5201C51.1564 33.8962 51.6763 35.7362 51.6763 38.0402C51.6763 40.2641 51.1642 42.0882 50.1403 43.5122C49.132 44.9202 47.596 45.6242 45.5323 45.6242ZM64.5765 51.0002H71.0986V37.8482C71.0986 36.2321 71.2718 34.9361 71.6184 33.9601C71.9807 32.9842 72.4376 32.2481 72.989 31.7521C73.5404 31.2401 74.1312 30.8962 74.7611 30.7201C75.3918 30.5441 75.9825 30.4561 76.5334 30.4561C77.904 30.4561 78.96 30.7681 79.6999 31.3921C80.4561 32.0161 80.9996 32.7922 81.3305 33.7201C81.6613 34.6481 81.8585 35.5762 81.9212 36.5042C81.9847 37.4162 82.0158 38.1682 82.0158 38.7602V51.0002H88.5378V36.4562C88.5378 36.0242 88.5068 35.3362 88.4433 34.3921C88.3806 33.4481 88.1996 32.4082 87.8998 31.2721C87.6007 30.1201 87.0964 29.0161 86.3875 27.9601C85.6948 26.9041 84.7178 26.0321 83.4572 25.3441C82.1974 24.6561 80.5669 24.3121 78.5657 24.3121C76.7225 24.3121 75.1156 24.6241 73.7452 25.2481C72.3746 25.8721 71.2245 26.7041 70.2951 27.7441V25.0801H64.5765V51.0002ZM93.2522 51.0002H99.8688L102.019 43.8002H114.827L117.025 51.0002H123.641L113.244 16.4401H103.65L93.2522 51.0002ZM103.839 37.7042L108.376 22.5601L112.984 37.7042H103.839ZM140.754 51.7202C142.487 51.7202 144.165 51.4962 145.787 51.0482C147.426 50.6002 148.891 49.9282 150.182 49.0322C151.475 48.1202 152.498 46.9762 153.254 45.6002C154.027 44.2082 154.412 42.5842 154.412 40.7282C154.412 38.9842 154.09 37.5442 153.443 36.4082C152.814 35.2721 152.002 34.3601 151.009 33.6721C150.033 32.9681 149.009 32.4241 147.937 32.0401C146.867 31.6402 145.89 31.3201 145.007 31.0801L139.1 29.4481C138.375 29.2561 137.666 29.0161 136.973 28.7281C136.28 28.4401 135.705 28.0641 135.248 27.6001C134.791 27.1201 134.562 26.5041 134.562 25.7521C134.562 24.9361 134.839 24.2321 135.39 23.6401C135.957 23.0481 136.682 22.6001 137.564 22.2961C138.462 21.9761 139.415 21.8321 140.423 21.8641C141.967 21.9121 143.385 22.3761 144.676 23.2561C145.969 24.1361 146.803 25.4161 147.181 27.0961L154.129 25.8961C153.31 22.6481 151.718 20.1601 149.355 18.4321C146.992 16.7041 144.047 15.8161 140.517 15.7681C138.186 15.7521 136.059 16.1201 134.137 16.8721C132.216 17.6241 130.68 18.7681 129.529 20.3041C128.379 21.8401 127.804 23.7681 127.804 26.0881C127.804 27.7361 128.072 29.1041 128.608 30.1921C129.159 31.2641 129.844 32.1281 130.663 32.7841C131.483 33.4402 132.326 33.9442 133.192 34.2961C134.074 34.6481 134.846 34.9202 135.508 35.1122L144.346 37.7522C145.669 38.1521 146.551 38.6561 146.992 39.2642C147.434 39.8561 147.654 40.5041 147.654 41.2082C147.654 42.1682 147.331 42.9762 146.685 43.6322C146.055 44.2882 145.244 44.7842 144.251 45.1202C143.259 45.4562 142.235 45.6242 141.179 45.6242C139.289 45.6242 137.603 45.0882 136.122 44.0162C134.641 42.9442 133.665 41.4162 133.192 39.4322L126.481 40.4402C126.828 42.7762 127.647 44.7922 128.938 46.4882C130.246 48.1682 131.908 49.4642 133.924 50.3762C135.957 51.2722 138.233 51.7202 140.754 51.7202Z" fill="#AF2242"/>
<path d="M170.844 10.6209C169.526 10.9835 168.543 12.0067 168.25 13.32C168.17 13.6503 168.123 14.2545 168.123 14.7943V15.7047L167.654 15.8497C166.948 16.0592 166.242 16.5184 165.624 17.1549C164.672 18.1297 164.156 19.4027 164.156 20.7723V21.4329L163.744 21.6264C163.165 21.8922 162.49 22.5931 162.181 23.2296C161.562 24.5267 161.705 25.9366 162.594 27.1129C162.863 27.4754 162.871 27.4916 162.728 27.6204C162.507 27.8299 162.03 28.7887 161.895 29.3204C161.713 30.0294 161.713 47.6895 161.895 48.3985C162.308 50.0099 163.736 51.3795 165.299 51.6614C165.608 51.7178 167.813 51.7501 171.724 51.7501C178.268 51.7501 178.205 51.7501 179.205 51.2506C180.172 50.7672 180.902 49.9132 181.362 48.7047L181.568 48.1649L181.592 39.222C181.608 33.0506 181.592 30.118 181.529 29.7716C181.41 29.0787 181.18 28.4744 180.815 27.9266L180.513 27.4674L180.775 27.1612C181.735 26.0897 181.878 24.2931 181.108 22.9638C180.839 22.5045 180.125 21.8439 179.641 21.6021L179.252 21.4169L179.205 20.6515C179.141 19.7169 179.006 19.1852 178.626 18.3956C178.086 17.2838 176.777 16.164 175.603 15.8094L175.262 15.7128V14.6412C175.262 13.4811 175.143 12.9171 174.762 12.2565C174.508 11.8214 173.802 11.1366 173.374 10.911C172.612 10.5162 171.645 10.4034 170.844 10.6209ZM172.248 13.0702C172.818 13.3764 172.835 13.4488 172.882 15.4146C172.922 17.034 172.938 17.1952 173.089 17.3966C173.374 17.7914 173.62 17.9203 174.239 18.0009C175.722 18.1861 176.682 19.1691 176.817 20.6354L176.873 21.2154H171.7H166.536V20.7321C166.536 20.0553 166.79 19.4188 167.274 18.9032C167.79 18.3473 168.305 18.0975 169.13 18.0009C169.59 17.9525 169.852 17.88 170.026 17.7511C170.455 17.445 170.503 17.2032 170.503 15.5033C170.503 14.6171 170.534 13.8759 170.59 13.7469C170.844 13.0541 171.629 12.7318 172.248 13.0702ZM178.594 23.7855C179.03 24.0191 179.188 24.3012 179.188 24.8409C179.188 25.3807 179.03 25.6627 178.594 25.8963C178.332 26.0414 177.991 26.0494 171.756 26.0494C167.313 26.0494 165.124 26.0253 164.973 25.9608C164.196 25.6627 163.934 24.7281 164.449 24.1078C164.854 23.6163 164.553 23.6405 171.732 23.6325C177.991 23.6325 178.332 23.6405 178.594 23.7855ZM178.094 28.5953C178.451 28.7726 178.792 29.127 179.014 29.546L179.188 29.8763V38.8595V47.8426L179.014 48.173C178.792 48.5999 178.451 48.9464 178.062 49.1397C177.777 49.2848 177.491 49.2928 171.652 49.2928C165.545 49.2928 165.545 49.2928 165.227 49.1156C164.815 48.89 164.521 48.5677 164.323 48.1246C164.18 47.8023 164.156 47.5928 164.156 46.328V44.9019H165.846C167.338 44.9019 167.559 44.8859 167.805 44.7489C168.241 44.5152 168.4 44.2332 168.4 43.6935C168.4 43.1537 168.241 42.8717 167.805 42.6381C167.559 42.5011 167.338 42.485 165.846 42.485H164.156V41.2765V40.068H167.036C169.685 40.068 169.931 40.0599 170.185 39.9149C170.622 39.6812 170.78 39.3993 170.78 38.8595C170.78 38.3197 170.622 38.0377 170.185 37.8041C169.931 37.659 169.685 37.651 167.036 37.651H164.156V36.4425V35.234H165.846C167.338 35.234 167.559 35.2178 167.805 35.0809C168.241 34.8473 168.4 34.5653 168.4 34.0255C168.4 33.4857 168.241 33.2037 167.805 32.9701C167.559 32.8331 167.338 32.817 165.846 32.817H164.156V31.3829C164.156 30.0536 164.172 29.9328 164.347 29.5541C164.545 29.127 164.839 28.8047 165.227 28.6034C165.441 28.4906 166.171 28.4745 171.637 28.4664C177.214 28.4664 177.84 28.4825 178.094 28.5953Z" fill="#AF2242"/>
</svg>
