<svg width="32" height="32" viewBox="0 0 32 32" fill="none" xmlns="http://www.w3.org/2000/svg">
<circle cx="16" cy="16" r="16" fill="white"/>
<path d="M23.5 16.4395V14.5H22V16.75C22 16.9489 22.0791 17.1396 22.2197 17.2803L24.25 19.3105V20.5H7.75V19.3105L9.78025 17.2803C9.92091 17.1396 9.99996 16.9489 10 16.75V13.75C9.99791 12.6961 10.274 11.6603 10.8003 10.7472C11.3267 9.83417 12.0846 9.07618 12.9977 8.5498C13.9107 8.02343 14.9465 7.74733 16.0004 7.74938C17.0543 7.75144 18.089 8.03157 19 8.5615V6.88525C18.2861 6.56914 17.5267 6.36766 16.75 6.28825V4.75H15.25V6.2875C13.4009 6.4757 11.6873 7.34284 10.4405 8.72124C9.19373 10.0996 8.50233 11.8914 8.5 13.75V16.4395L6.46975 18.4697C6.32909 18.6104 6.25004 18.8011 6.25 19V21.25C6.25 21.4489 6.32902 21.6397 6.46967 21.7803C6.61032 21.921 6.80109 22 7 22H12.25V22.75C12.25 23.7446 12.6451 24.6984 13.3484 25.4016C14.0516 26.1049 15.0054 26.5 16 26.5C16.9946 26.5 17.9484 26.1049 18.6517 25.4016C19.3549 24.6984 19.75 23.7446 19.75 22.75V22H25C25.1989 22 25.3897 21.921 25.5303 21.7803C25.671 21.6397 25.75 21.4489 25.75 21.25V19C25.75 18.8011 25.6709 18.6104 25.5303 18.4697L23.5 16.4395ZM18.25 22.75C18.25 23.3467 18.0129 23.919 17.591 24.341C17.169 24.7629 16.5967 25 16 25C15.4033 25 14.831 24.7629 14.409 24.341C13.9871 23.919 13.75 23.3467 13.75 22.75V22H18.25V22.75Z" fill="#AF2242"/>
<path d="M23.5 13C25.1569 13 26.5 11.6569 26.5 10C26.5 8.34315 25.1569 7 23.5 7C21.8431 7 20.5 8.34315 20.5 10C20.5 11.6569 21.8431 13 23.5 13Z" fill="#FF0000"/>
</svg>
