<svg width="25" height="30" viewBox="0 0 25 30" xmlns="http://www.w3.org/2000/svg">
<g filter="url(#filter0_d_694_3075)">
<path fill-rule="evenodd" clip-rule="evenodd" d="M20.08 16.71L20.32 17.85C20.5474 18.8356 20.3228 19.8713 19.7076 20.6741C19.0924 21.477 18.1508 21.9632 17.14 22H7.85997C6.84915 21.9632 5.90754 21.477 5.29232 20.6741C4.6771 19.8713 4.45254 18.8356 4.67997 17.85L4.91997 16.71C5.19601 15.1668 6.52259 14.0327 8.08997 14H16.91C18.4774 14.0327 19.8039 15.1668 20.08 16.71ZM17.14 20.49C17.6478 20.4841 18.1256 20.2488 18.44 19.85V19.86C18.8257 19.3762 18.9759 18.7458 18.85 18.14L18.61 17C18.4768 16.1552 17.7646 15.5226 16.91 15.49H8.08998C7.23534 15.5226 6.52314 16.1552 6.38998 17L6.14998 18.14C6.02713 18.7426 6.17724 19.3686 6.55998 19.85C6.87431 20.2488 7.35219 20.4841 7.85998 20.49H17.14Z"/>
<path fill-rule="evenodd" clip-rule="evenodd" d="M13 12H12C9.79088 12 8.00001 10.2091 8.00001 7.99998V5.35998C7.99735 4.46804 8.35049 3.61186 8.98119 2.98116C9.61189 2.35046 10.4681 1.99732 11.36 1.99998H13.64C14.532 1.99732 15.3881 2.35046 16.0188 2.98116C16.6495 3.61186 17.0027 4.46804 17 5.35998V7.99998C17 10.2091 15.2092 12 13 12ZM11.36 3.49998C10.3328 3.49998 9.50002 4.33273 9.50002 5.35998V7.99998C9.50002 9.3807 10.6193 10.5 12 10.5H13C14.3807 10.5 15.5 9.3807 15.5 7.99998V5.35998C15.5 4.86668 15.3041 4.39358 14.9552 4.04477C14.6064 3.69595 14.1333 3.49998 13.64 3.49998H11.36Z"/>
</g>
</svg>
