<svg width="28" height="28" viewBox="0 0 28 28" fill="none" xmlns="http://www.w3.org/2000/svg">
<path d="M27.1137 25.3428L25.1999 19.6H23.0999L24.2661 25.2H3.73365L4.89985 19.6H2.79985L0.884654 25.3428C0.398854 26.8044 1.25985 28 2.79985 28H25.1999C26.7399 28 27.6009 26.8044 27.1137 25.3428ZM20.9999 7C20.9999 5.14348 20.2624 3.36301 18.9496 2.05025C17.6368 0.737498 15.8564 0 13.9999 0C12.1433 0 10.3629 0.737498 9.05011 2.05025C7.73735 3.36301 6.99985 5.14348 6.99985 7C6.99985 13.685 13.9999 21 13.9999 21C13.9999 21 20.9999 13.685 20.9999 7ZM10.2199 7.084C10.2199 4.9966 11.9111 3.3054 13.9999 3.3054C15.0022 3.3054 15.9635 3.70358 16.6722 4.41233C17.381 5.12109 17.7792 6.08237 17.7792 7.0847C17.7792 8.08703 17.381 9.04831 16.6722 9.75707C15.9635 10.4658 15.0022 10.864 13.9999 10.864C12.9973 10.864 12.0359 10.4658 11.327 9.75686C10.6181 9.04798 10.2199 8.08652 10.2199 7.084Z" fill="#AF2242"/>
</svg>
