<svg width="24" height="24" viewBox="0 0 24 24" fill="none" xmlns="http://www.w3.org/2000/svg">
<path d="M11.9027 5.98096C11.3094 5.98096 10.7293 6.1569 10.236 6.48655C9.74265 6.81619 9.35814 7.28473 9.13107 7.83291C8.90401 8.38108 8.8446 8.98428 8.96036 9.56623C9.07611 10.1482 9.36183 10.6827 9.78139 11.1023C10.2009 11.5218 10.7355 11.8076 11.3174 11.9233C11.8994 12.0391 12.5026 11.9797 13.0508 11.7526C13.5989 11.5255 14.0675 11.141 14.3971 10.6477C14.7268 10.1543 14.9027 9.5743 14.9027 8.98096C14.9018 8.18559 14.5854 7.42305 14.023 6.86064C13.4606 6.29822 12.6981 5.98186 11.9027 5.98096ZM11.9027 10.481C11.606 10.481 11.316 10.393 11.0694 10.2282C10.8227 10.0633 10.6304 9.82907 10.5169 9.55498C10.4034 9.28089 10.3737 8.97929 10.4315 8.68832C10.4894 8.39735 10.6323 8.13008 10.8421 7.9203C11.0518 7.71052 11.3191 7.56766 11.6101 7.50978C11.901 7.4519 12.2026 7.48161 12.4767 7.59514C12.7508 7.70867 12.9851 7.90093 13.1499 8.1476C13.3147 8.39427 13.4027 8.68428 13.4027 8.98096C13.4023 9.37864 13.2441 9.7599 12.9629 10.0411C12.6817 10.3223 12.3004 10.4805 11.9027 10.481Z" fill="#AF2242"/>
<path d="M17.6676 3.21182C16.2422 1.78684 14.3396 0.940347 12.3268 0.835709C10.3141 0.731072 8.33388 1.37571 6.76846 2.64521C5.20304 3.91471 4.16335 5.71908 3.85006 7.71006C3.53677 9.70104 3.97209 11.7375 5.07199 13.4264L10.7395 22.127C10.8656 22.3206 11.0381 22.4797 11.2412 22.5898C11.4444 22.6999 11.6718 22.7576 11.9028 22.7576C12.1339 22.7576 12.3613 22.6999 12.5644 22.5898C12.7676 22.4797 12.94 22.3206 13.0662 22.127L18.7339 13.4264C19.7544 11.8597 20.2055 9.9898 20.0113 8.13011C19.8172 6.27042 18.9897 4.53397 17.6676 3.21182ZM17.477 12.6076L11.9029 21.1647L6.32862 12.6076C4.62237 9.98831 4.98832 6.483 7.19876 4.27246C7.8165 3.6547 8.54988 3.16467 9.35701 2.83034C10.1641 2.496 11.0292 2.32393 11.9029 2.32393C12.7765 2.32393 13.6416 2.496 14.4487 2.83034C15.2558 3.16467 15.9892 3.6547 16.6069 4.27246C18.8174 6.483 19.1833 9.98831 17.477 12.6076Z" fill="#AF2242"/>
<path d="M17.6676 3.21182C16.2423 1.78684 14.3396 0.940347 12.3269 0.835709C10.3141 0.731072 8.33391 1.37571 6.76849 2.64521C5.20307 3.91471 4.16338 5.71908 3.85009 7.71006C3.5368 9.70104 3.97212 11.7375 5.07202 13.4264L10.7395 22.127C10.8657 22.3206 11.0381 22.4797 11.2412 22.5898C11.4444 22.6999 11.6718 22.7576 11.9029 22.7576C12.1339 22.7576 12.3613 22.6999 12.5645 22.5898C12.7676 22.4797 12.9401 22.3206 13.0662 22.127L18.7339 13.4264C19.7545 11.8597 20.2055 9.9898 20.0114 8.13011C19.8172 6.27042 18.9898 4.53397 17.6676 3.21182ZM17.4771 12.6076L11.9029 21.1647L6.32865 12.6076C4.6224 9.98831 4.98835 6.483 7.19879 4.27246C7.81653 3.6547 8.54991 3.16467 9.35704 2.83034C10.1642 2.496 11.0292 2.32393 11.9029 2.32393C12.7765 2.32393 13.6416 2.496 14.4487 2.83034C15.2559 3.16467 15.9892 3.6547 16.607 4.27246C18.8174 6.483 19.1833 9.98831 17.4771 12.6076Z" fill="#AF2242"/>
</svg>
