<svg width="32" height="32" viewBox="0 0 32 32" fill="none" xmlns="http://www.w3.org/2000/svg">
<path d="M5.3335 6.66666C5.3335 5.60579 5.75492 4.58838 6.50507 3.83823C7.25521 3.08808 8.27263 2.66666 9.3335 2.66666H22.6668C23.7277 2.66666 24.7451 3.08808 25.4953 3.83823C26.2454 4.58838 26.6668 5.60579 26.6668 6.66666V28C26.6668 28.2335 26.6054 28.4629 26.4888 28.6652C26.3722 28.8675 26.2046 29.0356 26.0026 29.1528C25.8007 29.27 25.5715 29.3321 25.338 29.3329C25.1045 29.3337 24.8749 29.2731 24.6722 29.1573L20.6668 26.8693L17.9842 28.4027C17.3799 28.7478 16.6961 28.9294 16.0002 28.9294C15.3043 28.9294 14.6204 28.7478 14.0162 28.4027L11.3335 26.868L7.32816 29.156C7.12551 29.2717 6.89603 29.3323 6.66266 29.3316C6.42928 29.3308 6.20018 29.2689 5.99826 29.1518C5.79634 29.0348 5.62868 28.8668 5.51202 28.6647C5.39536 28.4626 5.3338 28.2334 5.3335 28V6.66666ZM9.3335 5.33332C8.97987 5.33332 8.64074 5.4738 8.39069 5.72385C8.14064 5.9739 8.00016 6.31303 8.00016 6.66666V25.7027L10.6722 24.176C10.8736 24.0609 11.1015 24.0004 11.3335 24.0004C11.5655 24.0004 11.7934 24.0609 11.9948 24.176L15.3388 26.0867C15.5402 26.2017 15.7682 26.2622 16.0002 26.2622C16.2321 26.2622 16.4601 26.2017 16.6615 26.0867L20.0055 24.176C20.2069 24.0609 20.4349 24.0004 20.6668 24.0004C20.8988 24.0004 21.1267 24.0609 21.3282 24.176L24.0002 25.7027V6.66666C24.0002 6.31303 23.8597 5.9739 23.6096 5.72385C23.3596 5.4738 23.0205 5.33332 22.6668 5.33332H9.3335ZM10.6668 9.33332C10.6668 8.9797 10.8073 8.64056 11.0574 8.39051C11.3074 8.14047 11.6465 7.99999 12.0002 7.99999H20.0002C20.3538 7.99999 20.6929 8.14047 20.943 8.39051C21.193 8.64056 21.3335 8.9797 21.3335 9.33332C21.3335 9.68695 21.193 10.0261 20.943 10.2761C20.6929 10.5262 20.3538 10.6667 20.0002 10.6667H12.0002C11.6465 10.6667 11.3074 10.5262 11.0574 10.2761C10.8073 10.0261 10.6668 9.68695 10.6668 9.33332ZM10.6668 14.6667C10.6668 14.313 10.8073 13.9739 11.0574 13.7238C11.3074 13.4738 11.6465 13.3333 12.0002 13.3333H20.0002C20.3538 13.3333 20.6929 13.4738 20.943 13.7238C21.193 13.9739 21.3335 14.313 21.3335 14.6667C21.3335 15.0203 21.193 15.3594 20.943 15.6095C20.6929 15.8595 20.3538 16 20.0002 16H12.0002C11.6465 16 11.3074 15.8595 11.0574 15.6095C10.8073 15.3594 10.6668 15.0203 10.6668 14.6667ZM10.6668 20C10.6668 19.6464 10.8073 19.3072 11.0574 19.0572C11.3074 18.8071 11.6465 18.6667 12.0002 18.6667H16.0002C16.3538 18.6667 16.6929 18.8071 16.943 19.0572C17.193 19.3072 17.3335 19.6464 17.3335 20C17.3335 20.3536 17.193 20.6928 16.943 20.9428C16.6929 21.1928 16.3538 21.3333 16.0002 21.3333H12.0002C11.6465 21.3333 11.3074 21.1928 11.0574 20.9428C10.8073 20.6928 10.6668 20.3536 10.6668 20Z" fill="#FDF7F7"/>
</svg>
