<svg width="40" height="40" viewBox="0 0 40 40" fill="none" xmlns="http://www.w3.org/2000/svg">
<path d="M34.1879 19.6274C34.1874 19.437 34.1326 19.2507 34.0299 19.0904C33.9272 18.93 33.7808 18.8023 33.6081 18.7223L12.3949 8.82284C12.2098 8.73956 12.0038 8.71456 11.8042 8.75114C11.6046 8.78772 11.4209 8.88416 11.2774 9.02765C11.1339 9.17114 11.0374 9.35488 11.0009 9.55448C10.9643 9.75408 10.9893 9.96008 11.0726 10.1451L14.7212 18.6446L23.7015 18.6304L23.7015 20.6244L14.6929 20.6245L11.0513 29.1309C10.9722 29.3149 10.9501 29.5184 10.9879 29.7151C11.0257 29.9118 11.1217 30.0926 11.2635 30.234C11.4093 30.374 11.5941 30.4665 11.7936 30.4993C11.993 30.5321 12.1977 30.5037 12.3807 30.4179L33.5939 20.5184C33.7672 20.4415 33.915 20.3169 34.0202 20.1591C34.1254 20.0014 34.1835 19.817 34.1879 19.6274Z" fill="#FDF7F7"/>
</svg>
