<svg width="360" height="355" viewBox="0 0 360 355" fill="none" xmlns="http://www.w3.org/2000/svg">
<path opacity="0.6" fill-rule="evenodd" clip-rule="evenodd" d="M508.727 885.875C400.049 911.587 278.864 1009.86 186.295 947.385C94.6817 885.552 167.58 730.69 126.663 628.005C85.6039 524.965 -46.1623 464.938 -50.1197 354.086C-54.1522 241.126 1.22083 102.358 106.424 61.0626C220.983 16.0949 333.126 167.878 455.576 155.586C551.375 145.969 597.521 11.2156 693.374 2.14315C801.628 -8.10315 916.828 30.0612 996.179 104.418C1079.84 182.814 1143.93 298.932 1131.77 412.95C1119.84 524.852 1014.06 598.743 934.94 678.764C875.738 738.642 806.46 781.777 730.728 818.578C659.74 853.073 585.53 867.704 508.727 885.875Z" fill="#F7CAC9"/>
</svg>
