<svg width="32" height="32" viewBox="0 0 32 32" fill="none" xmlns="http://www.w3.org/2000/svg">
<path d="M29.5312 12.875H21.5312C21.3937 12.875 21.2812 12.9875 21.2812 13.125V14.625C21.2812 14.7625 21.3937 14.875 21.5312 14.875H29.5312C29.6687 14.875 29.7812 14.7625 29.7812 14.625V13.125C29.7812 12.9875 29.6687 12.875 29.5312 12.875ZM25.3437 17.125H21.5312C21.3937 17.125 21.2812 17.2375 21.2812 17.375V18.875C21.2812 19.0125 21.3937 19.125 21.5312 19.125H25.3437C25.4812 19.125 25.5937 19.0125 25.5937 18.875V17.375C25.5937 17.2375 25.4812 17.125 25.3437 17.125ZM14.9155 10.0781H13.5624C13.3687 10.0781 13.2124 10.2344 13.2124 10.4281V18.1781C13.2124 18.2906 13.2655 18.3938 13.3562 18.4594L18.0093 21.8531C18.1655 21.9656 18.3843 21.9344 18.4968 21.7781L19.2999 20.6812V20.6781C19.4124 20.5219 19.378 20.3031 19.2218 20.1906L15.2624 17.3281V10.4281C15.2655 10.2344 15.1062 10.0781 14.9155 10.0781Z" fill="#AF2242"/>
<path d="M25.15 21.0594H23.3438C23.1688 21.0594 23.0031 21.15 22.9094 21.3C22.5125 21.9281 22.05 22.5094 21.5188 23.0406C20.6031 23.9563 19.5375 24.675 18.3531 25.175C17.125 25.6938 15.8219 25.9563 14.4781 25.9563C13.1313 25.9563 11.8281 25.6938 10.6031 25.175C9.41877 24.675 8.35315 23.9563 7.43752 23.0406C6.5219 22.125 5.80315 21.0594 5.30315 19.875C4.7844 18.65 4.5219 17.3469 4.5219 16C4.5219 14.6531 4.7844 13.3531 5.30315 12.125C5.80315 10.9406 6.5219 9.87501 7.43752 8.95938C8.35315 8.04376 9.41877 7.32501 10.6031 6.82501C11.8281 6.30626 13.1344 6.04376 14.4781 6.04376C15.825 6.04376 17.1281 6.30626 18.3531 6.82501C19.5375 7.32501 20.6031 8.04376 21.5188 8.95938C22.05 9.49063 22.5125 10.0719 22.9094 10.7C23.0031 10.85 23.1688 10.9406 23.3438 10.9406H25.15C25.3656 10.9406 25.5031 10.7156 25.4063 10.525C23.3688 6.47188 19.2375 3.83751 14.625 3.78439C7.8719 3.70001 2.26252 9.22814 2.25002 15.975C2.23752 22.7344 7.71565 28.2188 14.475 28.2188C19.1469 28.2188 23.3469 25.575 25.4063 21.475C25.5031 21.2844 25.3625 21.0594 25.15 21.0594Z" fill="#AF2242"/>
</svg>
