<svg width="17" height="20" viewBox="0 0 17 20" xmlns="http://www.w3.org/2000/svg">
<path fill-rule="evenodd" clip-rule="evenodd" d="M16.08 14.71L16.32 15.85C16.5474 16.8356 16.3228 17.8713 15.7076 18.6741C15.0924 19.477 14.1508 19.9632 13.14 20H3.85997C2.84915 19.9632 1.90754 19.477 1.29232 18.6741C0.677098 17.8713 0.452539 16.8356 0.679972 15.85L0.919972 14.71C1.19601 13.1668 2.52259 12.0327 4.08997 12H12.91C14.4774 12.0327 15.8039 13.1668 16.08 14.71ZM13.14 18.49C13.6478 18.4841 14.1256 18.2488 14.44 17.85V17.86C14.8257 17.3762 14.9759 16.7458 14.85 16.14L14.61 15C14.4768 14.1552 13.7646 13.5226 12.91 13.49H4.08998C3.23534 13.5226 2.52314 14.1552 2.38998 15L2.14998 16.14C2.02713 16.7426 2.17724 17.3686 2.55998 17.85C2.87431 18.2488 3.35219 18.4841 3.85998 18.49H13.14Z"/>
<path fill-rule="evenodd" clip-rule="evenodd" d="M9.00002 9.99999H8.00002C5.79088 9.99999 4.00001 8.20912 4.00001 5.99998V3.35998C3.99735 2.46804 4.35049 1.61186 4.98119 0.981162C5.61189 0.350461 6.46807 -0.00268204 7.36002 -1.55259e-05H9.64002C10.532 -0.00268204 11.3881 0.350461 12.0188 0.981162C12.6495 1.61186 13.0027 2.46804 13 3.35998V5.99998C13 8.20912 11.2092 9.99999 9.00002 9.99999ZM7.36002 1.49998C6.33277 1.49998 5.50002 2.33273 5.50002 3.35998V5.99998C5.50002 7.3807 6.6193 8.49998 8.00002 8.49998H9.00002C10.3807 8.49998 11.5 7.3807 11.5 5.99998V3.35998C11.5 2.86668 11.3041 2.39358 10.9552 2.04477C10.6064 1.69595 10.1333 1.49998 9.64002 1.49998H7.36002Z"/>
</svg>
